<svg width="32" height="32" viewBox="0 0 62 59" fill="none" xmlns="http://www.w3.org/2000/svg">
  <path d="M61.1797 9.30107C61.1797 7.84806 60.0018 6.67017 58.5488 6.67017H46.1063V12.2119H58.2689C59.8765 12.2119 61.1797 10.9087 61.1797 9.30107V9.30107Z" fill="#ffffff"/>
  <path d="M38.4276 6.01439L26.9726 5.76408C20.9284 5.63201 14.7844 7.00651 10.2452 10.9996C4.90352 15.6985 0.475814 21.8705 1.78146 28.4184C2.76346 33.3432 4.9871 34.9318 8.11818 37.3931C9.05671 38.1309 10.3989 38.1046 11.2838 37.3032L15.6144 33.3812L29.0251 20.857L40.0446 10.1184C41.5632 8.63845 40.5476 6.06071 38.4276 6.01439Z" fill="#ffffff"/>
  <path d="M5.7003 53.1005L17.1554 53.3508C23.1995 53.4829 29.3435 52.1084 33.8827 48.1153C39.2244 43.4164 43.6521 37.2443 42.3465 30.6964C41.3645 25.7717 39.1408 24.183 36.0097 21.7217C35.0712 20.984 33.729 21.0102 32.8442 21.8116L28.5136 25.7337L15.1028 38.2579L4.08334 48.9965C2.56472 50.4764 3.58034 53.0542 5.7003 53.1005Z" fill="#ffffff"/>
  <path d="M46.106 15.3153C46.106 14.7031 46.6022 14.2069 47.2143 14.2069H52.756C57.0408 14.2069 60.5144 17.6805 60.5144 21.9653V52.5555C60.5144 53.1676 60.0181 53.6638 59.406 53.6638H53.8643C49.5795 53.6638 46.106 50.1902 46.106 45.9054V15.3153Z" fill="#ffffff"/>
</svg>
