<svg width="610" height="59" viewBox="0 0 610 59" fill="none" xmlns="http://www.w3.org/2000/svg">
<path d="M61.1797 9.30107C61.1797 7.84806 60.0018 6.67017 58.5488 6.67017H46.1063V12.2119H58.2689C59.8765 12.2119 61.1797 10.9087 61.1797 9.30107V9.30107Z" fill="white"/>
<path d="M38.4276 6.01439L26.9726 5.76408C20.9284 5.63201 14.7844 7.00651 10.2452 10.9996C4.90352 15.6985 0.475814 21.8705 1.78146 28.4184C2.76346 33.3432 4.9871 34.9318 8.11818 37.3931C9.05671 38.1309 10.3989 38.1046 11.2838 37.3032L15.6144 33.3812L29.0251 20.857L40.0446 10.1184C41.5632 8.63845 40.5476 6.06071 38.4276 6.01439Z" fill="white"/>
<path d="M5.7003 53.1005L17.1554 53.3508C23.1995 53.4829 29.3435 52.1084 33.8827 48.1153C39.2244 43.4164 43.6521 37.2443 42.3465 30.6964C41.3645 25.7717 39.1408 24.183 36.0097 21.7217C35.0712 20.984 33.729 21.0102 32.8442 21.8116L28.5136 25.7337L15.1028 38.2579L4.08334 48.9965C2.56472 50.4764 3.58034 53.0542 5.7003 53.1005Z" fill="white"/>
<path d="M46.106 15.3153C46.106 14.7031 46.6022 14.2069 47.2143 14.2069H52.756C57.0408 14.2069 60.5144 17.6805 60.5144 21.9653V52.5555C60.5144 53.1676 60.0181 53.6638 59.406 53.6638H53.8643C49.5795 53.6638 46.106 50.1902 46.106 45.9054V15.3153Z" fill="white"/>
<path d="M88.5954 44.3174C86.5097 44.3174 84.6357 43.9547 82.9732 43.2292C81.3409 42.4735 80.0563 41.4458 79.1193 40.1461C78.1822 38.8161 77.6986 37.2896 77.6684 35.5667H82.0664C82.2175 37.0478 82.822 38.3022 83.88 39.33C84.9681 40.3274 86.5399 40.8262 88.5954 40.8262C90.5601 40.8262 92.1017 40.3426 93.2201 39.3753C94.3687 38.3778 94.943 37.1083 94.943 35.5667C94.943 34.3576 94.6105 33.3753 93.9455 32.6196C93.2805 31.8639 92.4493 31.2896 91.4518 30.8967C90.4543 30.5037 89.1092 30.0806 87.4165 29.6272C85.3309 29.0831 83.6533 28.539 82.3838 27.9949C81.1445 27.4508 80.0714 26.6045 79.1646 25.4559C78.288 24.277 77.8497 22.7052 77.8497 20.7405C77.8497 19.0175 78.288 17.4911 79.1646 16.1611C80.0412 14.8311 81.2654 13.8034 82.8372 13.078C84.4392 12.3525 86.2679 11.9898 88.3233 11.9898C91.2856 11.9898 93.7037 12.7304 95.5778 14.2115C97.482 15.6926 98.5551 17.6573 98.7969 20.1057H94.2629C94.1118 18.8966 93.477 17.8387 92.3586 16.9319C91.2402 15.9949 89.7591 15.5264 87.9153 15.5264C86.1923 15.5264 84.7868 15.9798 83.6986 16.8866C82.6105 17.7631 82.0664 19.0024 82.0664 20.6045C82.0664 21.7531 82.3838 22.6901 83.0185 23.4155C83.6835 24.141 84.4845 24.7002 85.4216 25.0931C86.3888 25.4559 87.7339 25.879 89.4568 26.3627C91.5425 26.937 93.2201 27.5113 94.4896 28.0856C95.7591 28.6297 96.8473 29.4911 97.7541 30.67C98.6609 31.8186 99.1143 33.3904 99.1143 35.3854C99.1143 36.9269 98.7062 38.3778 97.8901 39.738C97.074 41.0982 95.8649 42.2015 94.2629 43.0479C92.6609 43.8942 90.7717 44.3174 88.5954 44.3174ZM119.513 44.3174C116.581 44.3174 113.906 43.6373 111.488 42.2771C109.07 40.8866 107.151 38.9672 105.73 36.5189C104.34 34.0403 103.644 31.2594 103.644 28.1763C103.644 25.0931 104.34 22.3274 105.73 19.879C107.151 17.4004 109.07 15.481 111.488 14.1208C113.906 12.7304 116.581 12.0352 119.513 12.0352C122.476 12.0352 125.166 12.7304 127.584 14.1208C130.002 15.481 131.906 17.3853 133.297 19.8337C134.687 22.282 135.383 25.0629 135.383 28.1763C135.383 31.2896 134.687 34.0705 133.297 36.5189C131.906 38.9672 130.002 40.8866 127.584 42.2771C125.166 43.6373 122.476 44.3174 119.513 44.3174ZM119.513 40.7355C121.72 40.7355 123.7 40.2216 125.453 39.1939C127.236 38.1662 128.627 36.7002 129.624 34.7959C130.652 32.8917 131.166 30.6851 131.166 28.1763C131.166 25.6372 130.652 23.4307 129.624 21.5566C128.627 19.6523 127.252 18.1863 125.498 17.1586C123.745 16.1309 121.75 15.617 119.513 15.617C117.277 15.617 115.282 16.1309 113.529 17.1586C111.775 18.1863 110.385 19.6523 109.357 21.5566C108.36 23.4307 107.861 25.6372 107.861 28.1763C107.861 30.6851 108.36 32.8917 109.357 34.7959C110.385 36.7002 111.775 38.1662 113.529 39.1939C115.312 40.2216 117.307 40.7355 119.513 40.7355ZM144.955 40.6448H156.018V44H140.829V12.3979H144.955V40.6448ZM164.435 12.3979V32.3929C164.435 35.204 165.115 37.2896 166.476 38.6499C167.866 40.0101 169.786 40.6902 172.234 40.6902C174.652 40.6902 176.541 40.0101 177.901 38.6499C179.292 37.2896 179.987 35.204 179.987 32.3929V12.3979H184.113V32.3476C184.113 34.9773 183.584 37.199 182.526 39.0126C181.468 40.796 180.032 42.1259 178.219 43.0025C176.435 43.8791 174.425 44.3174 172.189 44.3174C169.952 44.3174 167.927 43.8791 166.113 43.0025C164.33 42.1259 162.909 40.796 161.851 39.0126C160.823 37.199 160.309 34.9773 160.309 32.3476V12.3979H164.435ZM205.233 40.6902C207.53 40.6902 209.495 40.1914 211.127 39.1939C212.789 38.1662 214.059 36.7002 214.935 34.7959H219.878C218.789 37.5768 217.097 39.7834 214.799 41.4156C212.532 43.0479 209.872 43.9849 206.82 44.2267V46.6297C208.603 46.5995 210.024 46.9773 211.082 47.7632C212.14 48.5491 212.668 49.6675 212.668 51.1184C212.668 52.5391 212.155 53.6726 211.127 54.5189C210.099 55.3653 208.769 55.7885 207.137 55.7885H201.923V53.1134H206.321C207.318 53.1134 208.044 52.9622 208.497 52.66C208.981 52.3577 209.223 51.8439 209.223 51.1184C209.223 50.4232 208.981 49.9245 208.497 49.6222C208.044 49.3199 207.318 49.1688 206.321 49.1688H204.054V44.2267C201.303 44.0453 198.809 43.2594 196.573 41.869C194.366 40.4484 192.628 38.5592 191.359 36.2015C190.089 33.8136 189.454 31.1385 189.454 28.1763C189.454 25.0931 190.15 22.3274 191.54 19.879C192.93 17.4004 194.82 15.4659 197.207 14.0755C199.626 12.685 202.301 11.9898 205.233 11.9898C208.679 11.9898 211.686 12.8211 214.255 14.4835C216.825 16.146 218.699 18.5037 219.878 21.5566H214.935C214.059 19.6523 212.789 18.1863 211.127 17.1586C209.495 16.1309 207.53 15.617 205.233 15.617C203.026 15.617 201.046 16.1309 199.293 17.1586C197.54 18.1863 196.165 19.6523 195.167 21.5566C194.17 23.4307 193.671 25.6372 193.671 28.1763C193.671 30.6851 194.17 32.8917 195.167 34.7959C196.165 36.67 197.54 38.1209 199.293 39.1486C201.046 40.1763 203.026 40.6902 205.233 40.6902ZM240.347 44.3174C237.415 44.3174 234.74 43.6373 232.322 42.2771C229.904 40.8866 227.984 38.9672 226.563 36.5189C225.173 34.0403 224.478 31.2594 224.478 28.1763C224.478 25.0931 225.173 22.3274 226.563 19.879C227.984 17.4004 229.904 15.481 232.322 14.1208C234.74 12.7304 237.415 12.0352 240.347 12.0352C243.309 12.0352 245.999 12.7304 248.417 14.1208C250.836 15.481 252.74 17.3853 254.13 19.8337C255.521 22.282 256.216 25.0629 256.216 28.1763C256.216 31.2896 255.521 34.0705 254.13 36.5189C252.74 38.9672 250.836 40.8866 248.417 42.2771C245.999 43.6373 243.309 44.3174 240.347 44.3174ZM240.347 40.7355C242.553 40.7355 244.533 40.2216 246.286 39.1939C248.07 38.1662 249.46 36.7002 250.458 34.7959C251.485 32.8917 251.999 30.6851 251.999 28.1763C251.999 25.6372 251.485 23.4307 250.458 21.5566C249.46 19.6523 248.085 18.1863 246.332 17.1586C244.579 16.1309 242.584 15.617 240.347 15.617C238.11 15.617 236.115 16.1309 234.362 17.1586C232.609 18.1863 231.218 19.6523 230.191 21.5566C229.193 23.4307 228.694 25.6372 228.694 28.1763C228.694 30.6851 229.193 32.8917 230.191 34.7959C231.218 36.7002 232.609 38.1662 234.362 39.1939C236.145 40.2216 238.14 40.7355 240.347 40.7355ZM233.818 9.90417C234.029 8.3626 234.528 7.18375 235.314 6.36763C236.13 5.55151 237.143 5.14344 238.352 5.14344C238.926 5.14344 239.41 5.24924 239.803 5.46083C240.226 5.64219 240.725 5.91423 241.299 6.27695C241.722 6.57922 242.1 6.82103 242.433 7.00239C242.765 7.15353 243.128 7.22909 243.521 7.22909C244.035 7.22909 244.473 7.06285 244.836 6.73035C245.198 6.39786 245.425 5.91423 245.516 5.27947H247.873C247.692 6.79081 247.193 7.95454 246.377 8.77066C245.561 9.58678 244.548 9.99485 243.339 9.99485C242.765 9.99485 242.251 9.90417 241.798 9.72281C241.375 9.51122 240.891 9.20895 240.347 8.816C239.863 8.51373 239.47 8.28703 239.168 8.1359C238.896 7.98476 238.564 7.9092 238.171 7.9092C237.657 7.9092 237.218 8.07544 236.856 8.40794C236.523 8.74043 236.312 9.23918 236.221 9.90417H233.818ZM265.789 15.7531V26.3173H277.305V29.7178H265.789V40.5995H278.665V44H261.663V12.3525H278.665V15.7531H265.789ZM294.929 44.3174C292.843 44.3174 290.969 43.9547 289.307 43.2292C287.674 42.4735 286.39 41.4458 285.453 40.1461C284.516 38.8161 284.032 37.2896 284.002 35.5667H288.4C288.551 37.0478 289.155 38.3022 290.213 39.33C291.301 40.3274 292.873 40.8262 294.929 40.8262C296.893 40.8262 298.435 40.3426 299.553 39.3753C300.702 38.3778 301.276 37.1083 301.276 35.5667C301.276 34.3576 300.944 33.3753 300.279 32.6196C299.614 31.8639 298.783 31.2896 297.785 30.8967C296.788 30.5037 295.443 30.0806 293.75 29.6272C291.664 29.0831 289.987 28.539 288.717 27.9949C287.478 27.4508 286.405 26.6045 285.498 25.4559C284.621 24.277 284.183 22.7052 284.183 20.7405C284.183 19.0175 284.621 17.4911 285.498 16.1611C286.375 14.8311 287.599 13.8034 289.171 13.078C290.773 12.3525 292.601 11.9898 294.657 11.9898C297.619 11.9898 300.037 12.7304 301.911 14.2115C303.815 15.6926 304.888 17.6573 305.13 20.1057H300.596C300.445 18.8966 299.81 17.8387 298.692 16.9319C297.574 15.9949 296.092 15.5264 294.249 15.5264C292.526 15.5264 291.12 15.9798 290.032 16.8866C288.944 17.7631 288.4 19.0024 288.4 20.6045C288.4 21.7531 288.717 22.6901 289.352 23.4155C290.017 24.141 290.818 24.7002 291.755 25.0931C292.722 25.4559 294.067 25.879 295.79 26.3627C297.876 26.937 299.553 27.5113 300.823 28.0856C302.092 28.6297 303.181 29.4911 304.087 30.67C304.994 31.8186 305.448 33.3904 305.448 35.3854C305.448 36.9269 305.04 38.3778 304.223 39.738C303.407 41.0982 302.198 42.2015 300.596 43.0479C298.994 43.8942 297.105 44.3174 294.929 44.3174ZM327.733 12.3979V44H323.607V12.3979H327.733ZM359.611 44H355.486L338.891 18.8362V44H334.765V12.3525H338.891L355.486 37.471V12.3525H359.611V44ZM386.096 12.3979V15.7531H377.481V44H373.355V15.7531H364.695V12.3979H386.096ZM395.301 15.7531V26.3173H406.817V29.7178H395.301V40.5995H408.177V44H391.175V12.3525H408.177V15.7531H395.301ZM418.546 40.6448H429.609V44H414.42V12.3979H418.546V40.6448ZM438.117 12.3979V44H433.991V12.3979H438.117ZM469.089 21.5566C468.212 19.7128 466.942 18.2921 465.28 17.2946C463.618 16.2669 461.683 15.7531 459.476 15.7531C457.27 15.7531 455.275 16.2669 453.492 17.2946C451.738 18.2921 450.348 19.743 449.32 21.6473C448.323 23.5213 447.824 25.6977 447.824 28.1763C447.824 30.6549 448.323 32.8312 449.32 34.7053C450.348 36.5793 451.738 38.0302 453.492 39.0579C455.275 40.0554 457.27 40.5541 459.476 40.5541C462.56 40.5541 465.099 39.6322 467.094 37.7884C469.089 35.9446 470.252 33.4508 470.585 30.3073H457.98V26.9521H474.983V30.1259C474.741 32.7254 473.925 35.1133 472.534 37.2896C471.144 39.4358 469.315 41.1436 467.048 42.4131C464.781 43.6524 462.257 44.272 459.476 44.272C456.544 44.272 453.869 43.5919 451.451 42.2317C449.033 40.8413 447.114 38.9219 445.693 36.4735C444.303 34.0252 443.607 31.2594 443.607 28.1763C443.607 25.0931 444.303 22.3274 445.693 19.879C447.114 17.4004 449.033 15.481 451.451 14.1208C453.869 12.7304 456.544 12.0352 459.476 12.0352C462.832 12.0352 465.794 12.8664 468.363 14.5289C470.963 16.1913 472.852 18.5339 474.031 21.5566H469.089ZM484.564 15.7531V26.3173H496.081V29.7178H484.564V40.5995H497.441V44H480.438V12.3525H497.441V15.7531H484.564ZM528.53 44H524.404L507.81 18.8362V44H503.684V12.3525H507.81L524.404 37.471V12.3525H528.53V44ZM555.015 12.3979V15.7531H546.4V44H542.274V15.7531H533.614V12.3979H555.015ZM564.219 15.7531V26.3173H575.736V29.7178H564.219V40.5995H577.096V44H560.093V12.3525H577.096V15.7531H564.219ZM593.359 44.3174C591.274 44.3174 589.4 43.9547 587.737 43.2292C586.105 42.4735 584.82 41.4458 583.883 40.1461C582.946 38.8161 582.463 37.2896 582.432 35.5667H586.83C586.981 37.0478 587.586 38.3022 588.644 39.33C589.732 40.3274 591.304 40.8262 593.359 40.8262C595.324 40.8262 596.866 40.3426 597.984 39.3753C599.133 38.3778 599.707 37.1083 599.707 35.5667C599.707 34.3576 599.374 33.3753 598.709 32.6196C598.044 31.8639 597.213 31.2896 596.216 30.8967C595.218 30.5037 593.873 30.0806 592.18 29.6272C590.095 29.0831 588.417 28.539 587.148 27.9949C585.908 27.4508 584.835 26.6045 583.929 25.4559C583.052 24.277 582.614 22.7052 582.614 20.7405C582.614 19.0175 583.052 17.4911 583.929 16.1611C584.805 14.8311 586.029 13.8034 587.601 13.078C589.203 12.3525 591.032 11.9898 593.087 11.9898C596.05 11.9898 598.468 12.7304 600.342 14.2115C602.246 15.6926 603.319 17.6573 603.561 20.1057H599.027C598.876 18.8966 598.241 17.8387 597.123 16.9319C596.004 15.9949 594.523 15.5264 592.679 15.5264C590.956 15.5264 589.551 15.9798 588.463 16.8866C587.374 17.7631 586.83 19.0024 586.83 20.6045C586.83 21.7531 587.148 22.6901 587.782 23.4155C588.447 24.141 589.248 24.7002 590.186 25.0931C591.153 25.4559 592.498 25.879 594.221 26.3627C596.306 26.937 597.984 27.5113 599.254 28.0856C600.523 28.6297 601.611 29.4911 602.518 30.67C603.425 31.8186 603.878 33.3904 603.878 35.3854C603.878 36.9269 603.47 38.3778 602.654 39.738C601.838 41.0982 600.629 42.2015 599.027 43.0479C597.425 43.8942 595.536 44.3174 593.359 44.3174Z" fill="white"/>
</svg>
