<svg width="265" height="249" viewBox="0 0 265 249" fill="none" xmlns="http://www.w3.org/2000/svg">
<path d="M265 16.1965C265 9.9028 259.898 4.80078 253.604 4.80078H199.71V28.8045H252.392C259.355 28.8045 265 23.1597 265 16.1965V16.1965Z" fill="white"/>
<path d="M166.451 1.95998L116.833 0.875777C90.6533 0.303707 64.0409 6.25732 44.3793 23.5531C21.242 43.9064 2.06354 70.6404 7.71891 99.0024C11.9724 120.334 21.604 127.215 35.1662 137.876C39.2314 141.072 45.0451 140.958 48.8778 137.487L67.6356 120.498L125.724 66.2502L173.454 19.7362C180.032 13.326 175.633 2.16064 166.451 1.95998Z" fill="white"/>
<path d="M24.691 205.912L74.3082 206.996C100.488 207.568 127.101 201.615 146.762 184.319C169.9 163.965 189.078 137.231 183.423 108.869C179.169 87.538 169.538 80.6569 155.975 69.9959C151.91 66.8002 146.096 66.9141 142.264 70.3852L123.506 87.3734L65.4178 141.622L17.6872 188.136C11.1093 194.546 15.5085 205.711 24.691 205.912Z" fill="white"/>
<path d="M199.709 42.2465C199.709 39.5952 201.858 37.4458 204.51 37.4458H228.513C247.073 37.4458 262.119 52.4913 262.119 71.051V203.551C262.119 206.203 259.969 208.352 257.318 208.352H233.314C214.755 208.352 199.709 193.306 199.709 174.747V42.2465Z" fill="white"/>
<path d="M20.6238 241.718C19.6447 241.718 18.765 241.548 17.9846 241.207C17.2184 240.853 16.6154 240.37 16.1755 239.76C15.7356 239.136 15.5086 238.419 15.4944 237.61H17.5589C17.6299 238.306 17.9137 238.895 18.4103 239.377C18.9211 239.845 19.6589 240.079 20.6238 240.079C21.5461 240.079 22.2697 239.852 22.7947 239.398C23.3339 238.93 23.6035 238.334 23.6035 237.61C23.6035 237.043 23.4474 236.582 23.1352 236.227C22.8231 235.872 22.4329 235.603 21.9646 235.418C21.4964 235.234 20.865 235.035 20.0704 234.822C19.0913 234.567 18.3039 234.312 17.7079 234.056C17.1262 233.801 16.6224 233.403 16.1968 232.864C15.7853 232.311 15.5795 231.573 15.5795 230.651C15.5795 229.842 15.7853 229.125 16.1968 228.501C16.6083 227.877 17.1829 227.394 17.9207 227.054C18.6728 226.713 19.5312 226.543 20.4961 226.543C21.8866 226.543 23.0217 226.891 23.9014 227.586C24.7954 228.281 25.2991 229.203 25.4126 230.353H23.2842C23.2133 229.785 22.9153 229.289 22.3903 228.863C21.8653 228.423 21.17 228.203 20.3045 228.203C19.4957 228.203 18.8359 228.416 18.3251 228.842C17.8143 229.253 17.5589 229.835 17.5589 230.587C17.5589 231.126 17.7079 231.566 18.0059 231.906C18.318 232.247 18.6941 232.509 19.1339 232.694C19.588 232.864 20.2194 233.063 21.0282 233.29C22.0072 233.559 22.7947 233.829 23.3906 234.099C23.9866 234.354 24.4974 234.758 24.9231 235.312C25.3487 235.851 25.5616 236.589 25.5616 237.525C25.5616 238.249 25.37 238.93 24.9869 239.569C24.6038 240.207 24.0362 240.725 23.2842 241.122C22.5322 241.52 21.6454 241.718 20.6238 241.718ZM35.1374 241.718C33.761 241.718 32.5053 241.399 31.3702 240.76C30.235 240.108 29.334 239.207 28.6671 238.057C28.0144 236.894 27.6881 235.589 27.6881 234.141C27.6881 232.694 28.0144 231.396 28.6671 230.246C29.334 229.083 30.235 228.182 31.3702 227.543C32.5053 226.891 33.761 226.564 35.1374 226.564C36.5279 226.564 37.7907 226.891 38.9258 227.543C40.061 228.182 40.9549 229.076 41.6076 230.225C42.2603 231.374 42.5866 232.68 42.5866 234.141C42.5866 235.603 42.2603 236.908 41.6076 238.057C40.9549 239.207 40.061 240.108 38.9258 240.76C37.7907 241.399 36.5279 241.718 35.1374 241.718ZM35.1374 240.037C36.1732 240.037 37.1025 239.796 37.9255 239.313C38.7627 238.831 39.4154 238.143 39.8836 237.249C40.366 236.355 40.6072 235.319 40.6072 234.141C40.6072 232.949 40.366 231.914 39.8836 231.034C39.4154 230.14 38.7698 229.452 37.9468 228.969C37.1238 228.487 36.1873 228.246 35.1374 228.246C34.0874 228.246 33.1509 228.487 32.3279 228.969C31.505 229.452 30.8523 230.14 30.3698 231.034C29.9016 231.914 29.6675 232.949 29.6675 234.141C29.6675 235.319 29.9016 236.355 30.3698 237.249C30.8523 238.143 31.505 238.831 32.3279 239.313C33.1651 239.796 34.1016 240.037 35.1374 240.037ZM47.0803 239.994H52.2735V241.569H45.1435V226.735H47.0803V239.994ZM56.2246 226.735V236.121C56.2246 237.44 56.5438 238.419 57.1823 239.058C57.835 239.696 58.736 240.016 59.8854 240.016C61.0205 240.016 61.9073 239.696 62.5458 239.058C63.1985 238.419 63.5249 237.44 63.5249 236.121V226.735H65.4617V236.099C65.4617 237.334 65.2134 238.377 64.7167 239.228C64.2201 240.065 63.5461 240.689 62.6948 241.101C61.8576 241.512 60.9141 241.718 59.8641 241.718C58.8141 241.718 57.8634 241.512 57.0121 241.101C56.1749 240.689 55.508 240.065 55.0114 239.228C54.529 238.377 54.2878 237.334 54.2878 236.099V226.735H56.2246ZM75.3757 240.016C76.454 240.016 77.3763 239.781 78.1425 239.313C78.9229 238.831 79.5189 238.143 79.9304 237.249H82.2503C81.7395 238.554 80.9449 239.59 79.8665 240.356C78.8023 241.122 77.5537 241.562 76.1206 241.676V242.804C76.9578 242.789 77.6246 242.967 78.1213 243.336C78.6179 243.705 78.8662 244.23 78.8662 244.911C78.8662 245.578 78.625 246.11 78.1425 246.507C77.6601 246.904 77.0358 247.103 76.2696 247.103H73.822V245.847H75.8865C76.3547 245.847 76.6953 245.776 76.9081 245.634C77.1351 245.492 77.2486 245.251 77.2486 244.911C77.2486 244.584 77.1351 244.35 76.9081 244.208C76.6953 244.066 76.3547 243.996 75.8865 243.996H74.8223V241.676C73.5311 241.59 72.3605 241.222 71.3105 240.569C70.2747 239.902 69.4588 239.015 68.8629 237.908C68.2669 236.787 67.969 235.532 67.969 234.141C67.969 232.694 68.2953 231.396 68.948 230.246C69.6007 229.083 70.4875 228.175 71.6085 227.522C72.7436 226.869 73.9993 226.543 75.3757 226.543C76.9932 226.543 78.405 226.933 79.6111 227.714C80.8172 228.494 81.6969 229.601 82.2503 231.034H79.9304C79.5189 230.14 78.9229 229.452 78.1425 228.969C77.3763 228.487 76.454 228.246 75.3757 228.246C74.3399 228.246 73.4105 228.487 72.5875 228.969C71.7646 229.452 71.1189 230.14 70.6507 231.034C70.1825 231.914 69.9483 232.949 69.9483 234.141C69.9483 235.319 70.1825 236.355 70.6507 237.249C71.1189 238.128 71.7646 238.809 72.5875 239.292C73.4105 239.774 74.3399 240.016 75.3757 240.016ZM91.859 241.718C90.4826 241.718 89.2269 241.399 88.0918 240.76C86.9567 240.108 86.0557 239.207 85.3888 238.057C84.7361 236.894 84.4097 235.589 84.4097 234.141C84.4097 232.694 84.7361 231.396 85.3888 230.246C86.0557 229.083 86.9567 228.182 88.0918 227.543C89.2269 226.891 90.4826 226.564 91.859 226.564C93.2495 226.564 94.5123 226.891 95.6475 227.543C96.7826 228.182 97.6765 229.076 98.3292 230.225C98.9819 231.374 99.3082 232.68 99.3082 234.141C99.3082 235.603 98.9819 236.908 98.3292 238.057C97.6765 239.207 96.7826 240.108 95.6475 240.76C94.5123 241.399 93.2495 241.718 91.859 241.718ZM91.859 240.037C92.8948 240.037 93.8242 239.796 94.6471 239.313C95.4843 238.831 96.137 238.143 96.6052 237.249C97.0877 236.355 97.3289 235.319 97.3289 234.141C97.3289 232.949 97.0877 231.914 96.6052 231.034C96.137 230.14 95.4914 229.452 94.6684 228.969C93.8455 228.487 92.909 228.246 91.859 228.246C90.809 228.246 89.8725 228.487 89.0496 228.969C88.2266 229.452 87.5739 230.14 87.0915 231.034C86.6232 231.914 86.3891 232.949 86.3891 234.141C86.3891 235.319 86.6232 236.355 87.0915 237.249C87.5739 238.143 88.2266 238.831 89.0496 239.313C89.8867 239.796 90.8232 240.037 91.859 240.037ZM88.7941 225.564C88.8935 224.84 89.1276 224.287 89.4965 223.904C89.8796 223.521 90.3549 223.329 90.9225 223.329C91.1921 223.329 91.4191 223.379 91.6036 223.478C91.8022 223.563 92.0363 223.691 92.3059 223.861C92.5046 224.003 92.682 224.117 92.838 224.202C92.9941 224.273 93.1644 224.308 93.3488 224.308C93.5901 224.308 93.7958 224.23 93.9661 224.074C94.1363 223.918 94.2427 223.691 94.2853 223.393H95.3921C95.3069 224.102 95.0728 224.649 94.6897 225.032C94.3066 225.415 93.8313 225.607 93.2637 225.607C92.9941 225.607 92.7529 225.564 92.5401 225.479C92.3414 225.379 92.1144 225.238 91.859 225.053C91.632 224.911 91.4475 224.805 91.3056 224.734C91.1779 224.663 91.0218 224.627 90.8374 224.627C90.5962 224.627 90.3904 224.706 90.2201 224.862C90.0641 225.018 89.9647 225.252 89.9222 225.564H88.7941ZM103.802 228.31V233.269H109.208V234.865H103.802V239.973H109.846V241.569H101.865V226.713H109.846V228.31H103.802ZM117.481 241.718C116.502 241.718 115.622 241.548 114.842 241.207C114.075 240.853 113.472 240.37 113.033 239.76C112.593 239.136 112.366 238.419 112.351 237.61H114.416C114.487 238.306 114.771 238.895 115.267 239.377C115.778 239.845 116.516 240.079 117.481 240.079C118.403 240.079 119.127 239.852 119.652 239.398C120.191 238.93 120.46 238.334 120.46 237.61C120.46 237.043 120.304 236.582 119.992 236.227C119.68 235.872 119.29 235.603 118.822 235.418C118.353 235.234 117.722 235.035 116.927 234.822C115.948 234.567 115.161 234.312 114.565 234.056C113.983 233.801 113.479 233.403 113.054 232.864C112.642 232.311 112.437 231.573 112.437 230.651C112.437 229.842 112.642 229.125 113.054 228.501C113.465 227.877 114.04 227.394 114.778 227.054C115.53 226.713 116.388 226.543 117.353 226.543C118.744 226.543 119.879 226.891 120.758 227.586C121.652 228.281 122.156 229.203 122.27 230.353H120.141C120.07 229.785 119.772 229.289 119.247 228.863C118.722 228.423 118.027 228.203 117.162 228.203C116.353 228.203 115.693 228.416 115.182 228.842C114.671 229.253 114.416 229.835 114.416 230.587C114.416 231.126 114.565 231.566 114.863 231.906C115.175 232.247 115.551 232.509 115.991 232.694C116.445 232.864 117.076 233.063 117.885 233.29C118.864 233.559 119.652 233.829 120.248 234.099C120.844 234.354 121.354 234.758 121.78 235.312C122.206 235.851 122.419 236.589 122.419 237.525C122.419 238.249 122.227 238.93 121.844 239.569C121.461 240.207 120.893 240.725 120.141 241.122C119.389 241.52 118.502 241.718 117.481 241.718ZM132.88 226.735V241.569H130.943V226.735H132.88ZM147.844 241.569H145.907L138.118 229.757V241.569H136.181V226.713H138.118L145.907 238.504V226.713H147.844V241.569ZM160.276 226.735V228.31H156.233V241.569H154.296V228.31H150.231V226.735H160.276ZM164.597 228.31V233.269H170.003V234.865H164.597V239.973H170.642V241.569H162.661V226.713H170.642V228.31H164.597ZM175.509 239.994H180.703V241.569H173.573V226.735H175.509V239.994ZM184.696 226.735V241.569H182.759V226.735H184.696ZM199.235 231.034C198.823 230.168 198.228 229.501 197.447 229.033C196.667 228.551 195.759 228.31 194.723 228.31C193.687 228.31 192.751 228.551 191.913 229.033C191.09 229.501 190.438 230.182 189.955 231.076C189.487 231.956 189.253 232.978 189.253 234.141C189.253 235.305 189.487 236.326 189.955 237.206C190.438 238.086 191.09 238.767 191.913 239.249C192.751 239.718 193.687 239.952 194.723 239.952C196.17 239.952 197.362 239.519 198.298 238.653C199.235 237.788 199.781 236.617 199.937 235.142H194.02V233.567H202.002V235.056C201.888 236.277 201.505 237.398 200.852 238.419C200.2 239.427 199.341 240.228 198.277 240.824C197.213 241.406 196.028 241.697 194.723 241.697C193.346 241.697 192.091 241.378 190.956 240.739C189.82 240.086 188.919 239.185 188.253 238.036C187.6 236.887 187.274 235.589 187.274 234.141C187.274 232.694 187.6 231.396 188.253 230.246C188.919 229.083 189.82 228.182 190.956 227.543C192.091 226.891 193.346 226.564 194.723 226.564C196.298 226.564 197.688 226.954 198.894 227.735C200.115 228.515 201.001 229.615 201.555 231.034H199.235ZM206.499 228.31V233.269H211.905V234.865H206.499V239.973H212.544V241.569H204.563V226.713H212.544V228.31H206.499ZM227.138 241.569H225.201L217.411 229.757V241.569H215.475V226.713H217.411L225.201 238.504V226.713H227.138V241.569ZM239.57 226.735V228.31H235.526V241.569H233.59V228.31H229.524V226.735H239.57ZM243.891 228.31V233.269H249.297V234.865H243.891V239.973H249.936V241.569H241.954V226.713H249.936V228.31H243.891ZM257.57 241.718C256.591 241.718 255.711 241.548 254.931 241.207C254.165 240.853 253.562 240.37 253.122 239.76C252.682 239.136 252.455 238.419 252.441 237.61H254.505C254.576 238.306 254.86 238.895 255.357 239.377C255.867 239.845 256.605 240.079 257.57 240.079C258.492 240.079 259.216 239.852 259.741 239.398C260.28 238.93 260.55 238.334 260.55 237.61C260.55 237.043 260.394 236.582 260.082 236.227C259.769 235.872 259.379 235.603 258.911 235.418C258.443 235.234 257.811 235.035 257.017 234.822C256.038 234.567 255.25 234.312 254.654 234.056C254.073 233.801 253.569 233.403 253.143 232.864C252.732 232.311 252.526 231.573 252.526 230.651C252.526 229.842 252.732 229.125 253.143 228.501C253.555 227.877 254.129 227.394 254.867 227.054C255.619 226.713 256.478 226.543 257.442 226.543C258.833 226.543 259.968 226.891 260.848 227.586C261.742 228.281 262.245 229.203 262.359 230.353H260.231C260.16 229.785 259.862 229.289 259.337 228.863C258.812 228.423 258.116 228.203 257.251 228.203C256.442 228.203 255.782 228.416 255.272 228.842C254.761 229.253 254.505 229.835 254.505 230.587C254.505 231.126 254.654 231.566 254.952 231.906C255.264 232.247 255.64 232.509 256.08 232.694C256.534 232.864 257.166 233.063 257.975 233.29C258.954 233.559 259.741 233.829 260.337 234.099C260.933 234.354 261.444 234.758 261.869 235.312C262.295 235.851 262.508 236.589 262.508 237.525C262.508 238.249 262.316 238.93 261.933 239.569C261.55 240.207 260.983 240.725 260.231 241.122C259.479 241.52 258.592 241.718 257.57 241.718Z" fill="white"/>
</svg>
